<?xml version="1.0" encoding="UTF-8"?>
<!DOCTYPE svg PUBLIC "-//W3C//DTD SVG 1.1//EN" "http://www.w3.org/Graphics/SVG/1.1/DTD/svg11.dtd">
<!-- Creator: CorelDRAW -->
<svg xmlns="http://www.w3.org/2000/svg" xml:space="preserve" width="210mm" height="297mm" style="shape-rendering:geometricPrecision; text-rendering:geometricPrecision; image-rendering:optimizeQuality; fill-rule:evenodd; clip-rule:evenodd"
viewBox="0 0 210 297"
 xmlns:xlink="http://www.w3.org/1999/xlink">
 <defs>
  <style type="text/css">
   <![CDATA[
    .str1 {stroke:red;stroke-width:0.0847}
    .str0 {stroke:#FC0303;stroke-width:1.0583}
    .fil0 {fill:none}
    .fil3 {fill:#1A1A1A}
    .fil1 {fill:red}
    .fil2 {fill:red;fill-rule:nonzero}
   ]]>
  </style>
 </defs>
 <g id="Layer_x0020_1">
  <metadata id="CorelCorpID_0Corel-Layer"/>
  <g id="_388145808">
   <g id="_264018064">
    <g>
     <path id="_260105520" class="fil0 str0" d="M63.6422 60.4307l15.4403 -23.1379 4.8123 3.2116m18.8298 12.5667l21.6934 14.4775 -3.1302 4.6905m-14.9564 22.4109l-12.1692 18.234 -3.9425 -2.6311m-21.4541 -14.3177l-19.9389 -13.307 2.7124 -4.0642"/>
     <polygon id="_261900080" class="fil0 str0" points="48.1782,75.0937 87.3318,37.1767 125.249,76.3297 86.0958,114.247 "/>
    </g>
    <polygon id="_261899960" class="fil1 str1" points="79.0824,37.2927 64.2289,59.5497 83.8948,40.5047 "/>
    <polygon id="_261884864" class="fil1 str1" points="67.6238,95.1727 51.5391,78.5637 48.8267,82.6287 "/>
    <polygon id="_442506272" class="fil1" points="102.725,53.0717 121.288,72.2397 124.418,67.5487 "/>
    <polygon id="_261899288" class="fil1" points="106.332,94.6497 90.2198,110.253 94.1618,112.884 "/>
   </g>
   <path id="_442507088" class="fil2" d="M70.645 57.2287l8.0437 0 0 21.5797c0,3.4235 0.102,5.6501 0.2969,6.6614 0.3432,1.6328 1.1689,2.941 2.4585,3.9244 1.2989,0.9927 3.0709,1.4844 5.3161,1.4844 2.2823,0 4.0079,-0.4638 5.1677,-1.4009 1.1597,-0.9277 1.8555,-2.0782 2.0874,-3.4327 0.2412,-1.3638 0.3526,-3.6183 0.3526,-6.7727l0 -22.0436 8.0437 0 0 20.9303c0,4.7873 -0.2134,8.1643 -0.6495,10.1405 -0.436,1.9761 -1.2339,3.6368 -2.4029,5.0006 -1.1689,1.3545 -2.7369,2.44 -4.6852,3.2472 -1.9575,0.8071 -4.5182,1.2061 -7.6726,1.2061 -3.8038,0 -6.6891,-0.4361 -8.656,-1.3175 -1.9669,-0.8813 -3.5162,-2.0225 -4.6574,-3.4234 -1.1411,-1.4009 -1.8926,-2.8761 -2.2544,-4.4162 -0.5289,-2.2823 -0.7886,-5.65 -0.7886,-10.1126l0 -21.255z"/>
   <rect id="_442507280" class="fil3" transform="matrix(0.983784 -0.179358 0.179358 0.983784 66.1171 70.2108)" width="39.4228" height="8.7313"/>
   <path id="_442505936" class="fil2" d="M70.5086 71.0987l1.0492 -0.2057 -0.146 3.3576 -0.0364 0.8265c-0.0004,0.0701 0.0034,0.135 0.0114,0.1948 0.0315,0.2365 0.1313,0.4167 0.2994,0.5409 0.1683,0.1254 0.3928,0.1598 0.675,0.1046 0.2538,-0.0498 0.4548,-0.1464 0.6054,-0.29 0.1507,-0.1438 0.256,-0.3343 0.317,-0.5734 0.0624,-0.2378 0.1044,-0.6285 0.127,-1.174l0.1502 -3.3799 1.0504 -0.206 -0.1461 3.3833c-0.0323,0.7116 -0.1039,1.2653 -0.2161,1.6599 -0.1122,0.396 -0.3156,0.74 -0.6103,1.0319 -0.2958,0.2921 -0.6915,0.4867 -1.1893,0.5843 -0.5955,0.1169 -1.0741,0.0366 -1.4365,-0.2421 -0.3611,-0.2803 -0.5779,-0.6861 -0.6493,-1.2217 -0.0149,-0.1113 -0.0226,-0.2339 -0.0246,-0.3677 -0.0022,-0.0896 0.0055,-0.3437 0.0238,-0.7656l0.1458 -3.2577zm8.975 4.3712l-0.9814 0.1924 -1.9169 -3.7439 -0.1826 4.1557 -0.9801 0.1923 0.27 -6.1843 0.9836 -0.1929 1.9185 3.7265 0.1823 -4.1386 0.9765 -0.1915 -0.2699 6.1843zm1.0253 -0.2011l0.2735 -6.185 1.0504 -0.206 -0.2699 6.1842 -1.054 0.2068zm5.4482 -3.2771l1.0861 -0.0203c-0.1177,0.7112 -0.3601,1.2855 -0.726,1.7212 -0.3671,0.436 -0.8282,0.7078 -1.3844,0.8169 -0.6252,0.1226 -1.144,-0.0012 -1.555,-0.3717 -0.4114,-0.3718 -0.6729,-0.9758 -0.7844,-1.8119 -0.0908,-0.6803 -0.0556,-1.3238 0.106,-1.9351 0.1607,-0.6096 0.4307,-1.1052 0.8088,-1.4863 0.3792,-0.3812 0.8155,-0.6196 1.3085,-0.7163 0.5538,-0.1086 1.0246,-0.0239 1.4126,0.2554 0.3879,0.2795 0.6523,0.7129 0.7926,1.2978l-0.9934 0.3119c-0.1024,-0.3368 -0.2431,-0.5676 -0.4235,-0.6921 -0.1804,-0.1245 -0.4028,-0.1608 -0.6683,-0.1088 -0.2907,0.057 -0.5484,0.2132 -0.7733,0.4687 -0.2249,0.2567 -0.3831,0.619 -0.4759,1.0869 -0.0928,0.4679 -0.1105,0.921 -0.052,1.3593 0.0638,0.4785 0.2118,0.8278 0.4431,1.0507 0.2313,0.2217 0.494,0.3043 0.787,0.2469 0.2715,-0.0533 0.5079,-0.2053 0.7065,-0.457 0.2,-0.2505 0.3283,-0.5897 0.385,-1.0162zm2.0171 -4.3185l1.0492 -0.2057 -0.146 3.3576 -0.0364 0.8266c-0.0004,0.0699 0.0034,0.1348 0.0113,0.1947 0.0316,0.2365 0.1314,0.4168 0.2995,0.5409 0.1682,0.1254 0.3928,0.1599 0.675,0.1045 0.2537,-0.0497 0.4548,-0.1462 0.6053,-0.29 0.1507,-0.1437 0.256,-0.3342 0.3171,-0.5732 0.0623,-0.2379 0.1044,-0.6286 0.127,-1.1742l0.1502 -3.3799 1.0504 -0.206 -0.1462 3.3835c-0.0322,0.7115 -0.1038,1.2652 -0.2161,1.6598 -0.1121,0.396 -0.3155,0.7399 -0.6102,1.0318 -0.2958,0.2922 -0.6916,0.4869 -1.1893,0.5844 -0.5955,0.1168 -1.0742,0.0366 -1.4365,-0.2422 -0.3612,-0.2803 -0.5778,-0.686 -0.6493,-1.2216 -0.0149,-0.1113 -0.0226,-0.2339 -0.0246,-0.3678 -0.0022,-0.0895 0.0055,-0.3436 0.0238,-0.7655l0.1458 -3.2577zm5.9597 4.9624l-1.0528 0.2066 0.2735 -6.185 2.271 -0.4455c0.3906,-0.0766 0.7018,-0.0891 0.931,-0.0384 0.2306,0.0519 0.4296,0.1885 0.5964,0.4127 0.1665,0.2229 0.2737,0.513 0.3212,0.8692 0.0677,0.5077 -0.006,0.9533 -0.2228,1.3341 -0.2168,0.3809 -0.5837,0.6628 -1.1007,0.8455 0.1533,0.1141 0.3056,0.2755 0.4543,0.4833 0.2982,0.4212 0.6471,1.0309 1.0502,1.8269l-1.1313 0.2218c-0.1354,-0.3188 -0.3829,-0.8099 -0.7439,-1.4729 -0.1956,-0.3571 -0.3839,-0.5871 -0.5647,-0.6872 -0.1106,-0.0597 -0.2897,-0.0646 -0.5386,-0.0157l-0.4287 0.084 -0.1141 2.5606zm0.1541 -3.4891l0.5584 -0.1095c0.5657,-0.111 0.9357,-0.2235 1.1097,-0.3391 0.1741,-0.1141 0.3029,-0.2664 0.3853,-0.4552 0.0809,-0.19 0.1099,-0.3756 0.0852,-0.5607 -0.0291,-0.2184 -0.1259,-0.3664 -0.2915,-0.4453 -0.1016,-0.0472 -0.3072,-0.0397 -0.6168,0.021l-1.1575 0.227 -0.0728 1.6618zm3.9317 2.6877l0.2712 -6.1844 3.7918 -0.7437 -0.0443 1.0336 -2.739 0.5372 -0.0631 1.4043 2.6473 -0.5192 -0.0441 1.0336 -2.6486 0.5195 -0.104 1.6849 2.976 -0.5837 -0.0477 1.0344 -3.9955 0.7835z"/>
  </g>
 </g>
</svg>
