<?xml version="1.0" encoding="UTF-8"?>
<!DOCTYPE svg PUBLIC "-//W3C//DTD SVG 1.1//EN" "http://www.w3.org/Graphics/SVG/1.1/DTD/svg11.dtd">
<!-- Creator: CorelDRAW -->
<svg xmlns="http://www.w3.org/2000/svg" xml:space="preserve" width="210mm" height="297mm" style="shape-rendering:geometricPrecision; text-rendering:geometricPrecision; image-rendering:optimizeQuality; fill-rule:evenodd; clip-rule:evenodd"
viewBox="0 0 210 297"
 xmlns:xlink="http://www.w3.org/1999/xlink">
 <defs>
  <style type="text/css">
   <![CDATA[
    .str1 {stroke:red;stroke-width:0.0847}
    .str2 {stroke:white;stroke-width:0.5292}
    .str0 {stroke:#FC0303;stroke-width:1.0583}
    .fil0 {fill:none}
    .fil2 {fill:red}
    .fil1 {fill:white}
    .fil3 {fill:red;fill-rule:nonzero}
   ]]>
  </style>
 </defs>
 <g id="Layer_x0020_1">
  <metadata id="CorelCorpID_0Corel-Layer"/>
  <g id="_466402184">
   <path id="_260105520" class="fil0 str0" d="M52.8998 97.7429l36.6347 -54.8985 11.418 7.62m44.6768 29.8166l51.4713 34.3503 -7.4269 11.129m-35.4866 53.1737l-28.8735 43.2632 -9.3542 -6.2427m-50.9035 -33.9712l-47.3084 -31.5731 6.4356 -9.643"/>
   <polygon id="_261900080" class="fil1 str0" points="16.7345,131.901 110.429,42.7668 199.564,136.461 105.87,225.595 "/>
   <polygon id="_261899960" class="fil2 str1" points="89.5343,42.8441 54.2918,95.6526 100.953,50.4651 "/>
   <polygon id="_261884864" class="fil2 str1" points="62.3468,180.174 24.1831,140.767 17.7475,150.411 "/>
   <polygon id="_442506272" class="fil2" points="145.63,80.2825 189.674,125.762 197.1,114.632 "/>
   <polygon id="_261899288" class="fil2" points="154.188,178.933 115.96,215.954 125.313,222.197 "/>
   <path id="_442507088" class="fil3" d="M69.5151 90.1456l19.085 0 0 51.2015c0,8.1228 0.242,13.4058 0.7045,15.8053 0.8143,3.8741 2.7734,6.978 5.8332,9.3113 3.0818,2.3553 7.2862,3.522 12.6133,3.522 5.4152,0 9.5094,-1.1005 12.2613,-3.3239 2.7515,-2.2011 4.4024,-4.9309 4.9527,-8.1446 0.5723,-3.2359 0.8366,-8.5851 0.8366,-16.0694l0 -52.3022 19.085 0 0 49.6607c0,11.3587 -0.5063,19.3712 -1.541,24.06 -1.0345,4.6887 -2.9277,8.629 -5.7013,11.8648 -2.7734,3.2138 -6.4938,5.7893 -11.1165,7.7045 -4.6445,1.915 -10.7201,2.8617 -18.2045,2.8617 -9.0251,0 -15.871,-1.0347 -20.5378,-3.126 -4.6668,-2.091 -8.3428,-4.7987 -11.0505,-8.1226 -2.7074,-3.3238 -4.4905,-6.824 -5.3489,-10.4782 -1.2549,-5.4151 -1.8711,-13.4055 -1.8711,-23.9938l0 -50.4311z"/>
   <rect id="_442507280" class="fil1 str2" transform="matrix(2.33419 -0.425557 0.425557 2.33419 58.7719 120.948)" width="39.4228" height="8.7313"/>
   <path id="_442505936" class="fil3" d="M69.7125 122.537l2.4894 -0.488 -0.3464 7.9664 -0.0864 1.961c-0.0009,0.1664 0.0081,0.3203 0.0271,0.4622 0.0747,0.5612 0.3115,0.9887 0.7104,1.2834 0.3993,0.2975 0.932,0.3792 1.6015,0.2482 0.6022,-0.1182 1.0791,-0.3474 1.4364,-0.6881 0.3576,-0.3412 0.6074,-0.7932 0.7522,-1.3605 0.148,-0.5642 0.2477,-1.4912 0.3013,-2.7855l0.3564 -8.0194 2.4922 -0.4887 -0.3466 8.0274c-0.0767,1.6884 -0.2465,3.0021 -0.5128,3.9384 -0.2662,0.9396 -0.7488,1.7558 -1.448,2.4484 -0.7018,0.693 -1.6407,1.1547 -2.8218,1.3863 -1.4129,0.2774 -2.5485,0.0868 -3.4084,-0.5744 -0.8567,-0.6651 -1.3711,-1.6279 -1.5405,-2.8987 -0.0354,-0.2641 -0.0536,-0.555 -0.0584,-0.8724 -0.0052,-0.2126 0.0131,-0.8155 0.0565,-1.8165l0.3459 -7.7295zm21.2947 10.3714l-2.3285 0.4565 -4.5482 -8.883 -0.4332 9.8601 -2.3255 0.4562 0.6406 -14.6732 2.3338 -0.4577 4.5519 8.8417 0.4326 -9.8195 2.3169 -0.4544 -0.6404 14.6733zm2.4327 -0.4771l0.6489 -14.675 2.4923 -0.4887 -0.6404 14.673 -2.5008 0.4907zm12.9268 -7.7755l2.5769 -0.0482c-0.2792,1.6875 -0.8544,3.0501 -1.7225,4.0839 -0.871,1.0345 -1.9651,1.6793 -3.2847,1.9382 -1.4834,0.2909 -2.7144,-0.0028 -3.6895,-0.8819 -0.9762,-0.8822 -1.5966,-2.3153 -1.8612,-4.2991 -0.2154,-1.6141 -0.1319,-3.1409 0.2515,-4.5913 0.3813,-1.4464 1.0219,-2.6223 1.919,-3.5265 0.8998,-0.9045 1.935,-1.4701 3.1047,-1.6995 1.314,-0.2577 2.431,-0.0567 3.3516,0.6059 0.9204,0.6632 1.5477,1.6915 1.8806,3.0793l-2.357 0.74c-0.243,-0.7991 -0.5768,-1.3467 -1.0048,-1.6421 -0.4281,-0.2954 -0.9558,-0.3815 -1.5857,-0.2581 -0.6897,0.1352 -1.3012,0.5058 -1.8348,1.112 -0.5336,0.6091 -0.9089,1.4687 -1.1291,2.5789 -0.2202,1.1101 -0.2622,2.1852 -0.1234,3.2251 0.1514,1.1354 0.5025,1.9641 1.0513,2.493 0.5488,0.526 1.1721,0.722 1.8673,0.5858 0.6442,-0.1264 1.2051,-0.4871 1.6763,-1.0843 0.4745,-0.5943 0.7789,-1.3992 0.9135,-2.4111zm4.7859 -10.2464l2.4894 -0.488 -0.3464 7.9664 -0.0864 1.9613c-0.0009,0.1658 0.0081,0.3198 0.0268,0.462 0.075,0.5611 0.3118,0.9889 0.7106,1.2833 0.3991,0.2976 0.932,0.3794 1.6016,0.248 0.6019,-0.1179 1.0791,-0.3469 1.4362,-0.6881 0.3575,-0.341 0.6074,-0.7929 0.7523,-1.36 0.1479,-0.5645 0.2477,-1.4915 0.3014,-2.786l0.3563 -8.0194 2.4923 -0.4887 -0.3469 8.0279c-0.0764,1.6881 -0.2463,3.0019 -0.5127,3.9381 -0.266,0.9396 -0.7486,1.7556 -1.4478,2.4481 -0.7019,0.6933 -1.641,1.1553 -2.8218,1.3866 -1.413,0.2772 -2.5488,0.0869 -3.4084,-0.5746 -0.857,-0.6651 -1.3709,-1.6277 -1.5406,-2.8985 -0.0353,-0.2641 -0.0536,-0.5549 -0.0583,-0.8726 -0.0052,-0.2124 0.013,-0.8153 0.0564,-1.8163l0.346 -7.7295zm14.1404 11.7742l-2.498 0.4902 0.649 -14.675 5.3883 -1.057c0.9267,-0.1818 1.6651,-0.2114 2.2089,-0.0911 0.5472,0.1231 1.0193,0.4472 1.4151,0.9792 0.395,0.5288 0.6494,1.2172 0.7621,2.0623 0.1606,1.2046 -0.0142,2.2619 -0.5286,3.1654 -0.5144,0.9037 -1.385,1.5726 -2.6116,2.0061 0.3637,0.2707 0.7251,0.6536 1.0779,1.1467 0.7075,0.9993 1.5353,2.446 2.4917,4.3346l-2.6842 0.5263c-0.3212,-0.7564 -0.9084,-1.9217 -1.765,-3.4947 -0.4641,-0.8473 -0.9108,-1.393 -1.3398,-1.6305 -0.2624,-0.1417 -0.6874,-0.1533 -1.2779,-0.0373l-1.0172 0.1993 -0.2707 6.0755zm0.3656 -8.2785l1.3249 -0.2598c1.3422,-0.2634 2.2201,-0.5303 2.6329,-0.8046 0.4131,-0.2707 0.7187,-0.6321 0.9142,-1.08 0.192,-0.4508 0.2608,-0.8912 0.2022,-1.3304 -0.0691,-0.5182 -0.2987,-0.8693 -0.6916,-1.0565 -0.2411,-0.112 -0.7289,-0.0942 -1.4635,0.0498l-2.7464 0.5386 -0.1727 3.9429zm9.3286 6.377l0.6435 -14.6735 8.9967 -1.7646 -0.1051 2.4524 -6.4988 1.2746 -0.1497 3.332 6.2812 -1.2319 -0.1047 2.4524 -6.2842 1.2326 -0.2468 3.9977 7.0611 -1.385 -0.1132 2.4543 -9.48 1.859z"/>
  </g>
 </g>
</svg>
